<svg width="343" height="291" viewBox="0 0 343 291" fill="none" xmlns="http://www.w3.org/2000/svg">
<path d="M0 1H64V28.5C64 33.214 64 35.5711 65.4645 37.0355C66.9289 38.5 69.286 38.5 74 38.5H115C119.714 38.5 122.071 38.5 123.536 39.9645C125 41.4289 125 43.786 125 48.5V75.5M64 102.5V143.5H159.5C164.214 143.5 166.571 143.5 168.036 142.036C169.5 140.571 169.5 138.214 169.5 133.5V112.5C169.5 107.786 169.5 105.429 168.036 103.964C166.571 102.5 164.214 102.5 159.5 102.5H125V75.5M125 75.5H64" stroke="black"/>
<path d="M0 144H64V171.5C64 176.214 64 178.571 65.4645 180.036C66.9289 181.5 69.286 181.5 74 181.5H115C119.714 181.5 122.071 181.5 123.536 182.964C125 184.429 125 186.786 125 191.5V218.5M64 245.5V286.5H159.5C164.214 286.5 166.571 286.5 168.036 285.036C169.5 283.571 169.5 281.214 169.5 276.5V255.5C169.5 250.786 169.5 248.429 168.036 246.964C166.571 245.5 164.214 245.5 159.5 245.5H125V218.5M125 218.5H64" stroke="black"/>
<path d="M235.5 3.5H295.5V25C295.5 27.7614 297.739 30 300.5 30H335.5C338.261 30 340.5 32.2386 340.5 35V66C340.5 68.7614 338.261 71 335.5 71H235.5V30" stroke="black"/>
<path d="M171.5 72.5H235.5V105C235.5 107.761 237.739 110 240.5 110H291.5C294.261 110 296.5 112.239 296.5 115V147H235.5" stroke="black"/>
<path d="M296.5 147.5V169.5C296.5 172.261 298.739 174.5 301.5 174.5H336C338.761 174.5 341 176.739 341 179.5V210C341 212.761 338.761 215 336 215H236V170.5" stroke="black"/>
<path d="M170.5 215.5H235.5V247.5C235.5 250.261 237.739 252.5 240.5 252.5H291C293.761 252.5 296 254.739 296 257.5V291" stroke="black"/>
</svg>
